Coordinates
version=1
nRows=21
nColumns=22
inDegrees=yes

Units are S.I. units (second, meters, Newtons, ...)
If the header above contains a line with 'inDegrees', this indicates whether rotational values are in degrees (yes) or radians (no).

endheader
time	pelvis_tilt	pelvis_list	pelvis_rotation	pelvis_tx	pelvis_ty	pelvis_tz	hip_flexion_r	hip_adduction_r	hip_rotation_r	knee_angle_r	ankle_angle_r	subtalar_angle_r	hip_flexion_l	hip_adduction_l	hip_rotation_l	knee_angle_l	ankle_angle_l	subtalar_angle_l	lumbar_extension	lumbar_bending	lumbar_rotation
      0.01000000	     -2.92109922	     -8.43053423	      9.99852813	      0.01584335	      0.97468269	      0.81458876	      8.81562784	      8.72830352	     -7.81182805	    -15.59988237	      9.42078699	      2.00885701	     10.43832782	     -7.46886409	      8.88434822	    -18.24101568	     12.48005210	     -2.12330851	      0.89257630	      8.23446811	     -5.91447165
      0.02000000	     -2.91819806	     -8.45276583	      9.98205458	      0.01583517	      0.97466630	      0.81416336	      8.83898277	      8.72166900	     -7.80505478	    -15.64508665	      9.41233876	      2.01376861	     10.42344979	     -7.46628279	      8.88279060	    -18.23021435	     12.49318074	     -2.12936608	      0.86872018	      8.24613859	     -5.91907056
      0.03000000	     -2.91837107	     -8.47534761	      9.96445585	      0.01582841	      0.97464929	      0.81364064	      8.86916801	      8.70903790	     -7.79396439	    -15.69788746	      9.40826167	      2.02274616	     10.40410174	     -7.45871142	      8.87479270	    -18.20926738	     12.51308309	     -2.14237409	      0.84542058	      8.25599475	     -5.92249424
      0.04000000	     -2.92702785	     -8.48527409	      9.93918494	      0.01583683	      0.97463098	      0.81302417	      8.91433505	      8.67379175	     -7.78463970	    -15.77131039	      9.41550881	      2.05064579	     10.37535047	     -7.43295151	      8.85581374	    -18.16688828	     12.53358053	     -2.18265582	      0.82961777	      8.25076547	     -5.90052657
      0.05000000	     -2.94231378	     -8.48538210	      9.92058331	      0.01583109	      0.97462011	      0.81231766	      8.96638246	      8.62229363	     -7.76829730	    -15.84685219	      9.41990473	      2.08780515	     10.34279237	     -7.38946346	      8.84770318	    -18.10784467	     12.52910640	     -2.23459380	      0.81569916	      8.23595907	     -5.90870875
      0.06000000	     -2.95872510	     -8.48215707	      9.91918417	      0.01581717	      0.97461333	      0.81153567	      9.02136245	      8.56229200	     -7.76155464	    -15.92468870	      9.42700096	      2.12515899	     10.30912079	     -7.33759775	      8.84589171	    -18.03952595	     12.51988603	     -2.29095864	      0.80266607	      8.21579880	     -5.92947692
      0.07000000	     -2.97618627	     -8.47838943	      9.92405308	      0.01580734	      0.97460931	      0.81067656	      9.07804470	      8.49664592	     -7.75942437	    -16.00539298	      9.42914750	      2.15301776	     10.26999979	     -7.28037886	      8.84941534	    -17.96008363	     12.51092394	     -2.33670674	      0.79306350	      8.20039789	     -5.96536150
      0.08000000	     -2.99744139	     -8.46135122	      9.94161286	      0.01576968	      0.97460643	      0.80976733	      9.14345852	      8.41279595	     -7.76697512	    -16.09532833	      9.44191390	      2.18213619	     10.22908507	     -7.20431360	      8.86059611	    -17.86674741	     12.49133694	     -2.39219868	      0.78066920	      8.16762635	     -6.01095291
      0.09000000	     -3.01792053	     -8.44338283	      9.96564009	      0.01573836	      0.97460197	      0.80879541	      9.20922151	      8.32380775	     -7.77930003	    -16.18932187	      9.45481584	      2.20824633	     10.18411477	     -7.12315556	      8.87756188	    -17.76851425	     12.47163800	     -2.45144596	      0.77098045	      8.13886178	     -6.06657916
      0.10000000	     -3.03592953	     -8.42519545	      9.99612662	      0.01571288	      0.97459539	      0.80777457	      9.27424852	      8.23259901	     -7.79460165	    -16.28767361	      9.46739359	      2.22959122	     10.13526815	     -7.03833030	      8.89950465	    -17.66835617	     12.45220321	     -2.51352763	      0.76211570	      8.11277031	     -6.12797437
      0.11000000	     -3.05260404	     -8.40466444	     10.03225991	      0.01566250	      0.97458661	      0.80671404	      9.34167920	      8.13619024	     -7.81375230	    -16.39147185	      9.48261490	      2.24776065	     10.08571830	     -6.94790908	      8.92791198	    -17.56530355	     12.43030282	     -2.58689596	      0.74799033	      8.08552471	     -6.19204176
      0.12000000	     -3.06543271	     -8.39006535	     10.07048519	      0.01561382	      0.97457090	      0.80562203	      9.40840681	      8.04565326	     -7.82833267	    -16.50012286	      9.49292651	      2.26012817	     10.03533591	     -6.86286955	      8.95489381	    -17.46590319	     12.41323454	     -2.66380872	      0.73338694	      8.06752823	     -6.25489022
      0.13000000	     -3.07630099	     -8.37605516	     10.10895195	      0.01556142	      0.97454938	      0.80449420	      9.47737041	      7.95419811	     -7.84286286	    -16.61745678	      9.50379898	      2.26675968	      9.98538111	     -6.77572345	      8.98280145	    -17.37194646	     12.39579697	     -2.74865891	      0.71877702	      8.05372769	     -6.31519911
      0.14000000	     -3.08851999	     -8.36097963	     10.14970742	      0.01548672	      0.97451184	      0.80334716	      9.55341874	      7.85950788	     -7.84886795	    -16.74404593	      9.52394993	      2.27082762	      9.94751728	     -6.68623262	      9.00717034	    -17.29258098	     12.36558452	     -2.87602769	      0.70455448	      8.03865307	     -6.38358419
      0.15000000	     -3.09575391	     -8.36851491	     10.17549514	      0.01542951	      0.97447251	      0.80220660	      9.63125954	      7.78952547	     -7.86059929	    -16.87521963	      9.51221876	      2.27016052	      9.89827908	     -6.62595965	      9.02193300	    -17.20202113	     12.38018347	     -2.92418858	      0.68957434	      8.05148885	     -6.41045506
      0.16000000	     -3.10538632	     -8.36164797	     10.20135937	      0.01535660	      0.97442160	      0.80104562	      9.71940718	      7.70087753	     -7.87217449	    -17.02546869	      9.52441983	      2.26856324	      9.85990261	     -6.54777279	      9.03250759	    -17.12969379	     12.37563812	     -2.98244293	      0.67616838	      8.04945150	     -6.44742666
      0.17000000	     -3.11658887	     -8.36280491	     10.21843838	      0.01527299	      0.97436231	      0.79989421	      9.81536433	      7.61989542	     -7.87831012	    -17.18322739	      9.53362953	      2.27384465	      9.83256774	     -6.47952557	      9.03457667	    -17.07133108	     12.37635789	     -3.03914968	      0.66484704	      8.05666629	     -6.47466681
      0.18000000	     -3.13217150	     -8.36680794	     10.22842922	      0.01516307	      0.97429273	      0.79875748	      9.92496556	      7.53985689	     -7.88611344	    -17.35244904	      9.54678137	      2.28951236	      9.81982290	     -6.41441342	      9.02915956	    -17.02742399	     12.37924439	     -3.09620289	      0.65504510	      8.06590348	     -6.49390793
      0.19000000	     -3.17575030	     -8.36835430	     10.23085735	      0.01500862	      0.97418393	      0.79763656	     10.07362084	      7.45106802	     -7.87653558	    -17.53542242	      9.57852313	      2.34218642	      9.85605152	     -6.33987799	      9.02025306	    -17.01503131	     12.36828464	     -3.18502240	      0.67263725	      8.06800336	     -6.52906309
      0.20000000	     -3.17328353	     -8.40210322	     10.22834996	      0.01490223	      0.97413354	      0.79656052	     10.18056004	      7.40628711	     -7.89181123	    -17.71890740	      9.56596509	      2.36998979	      9.84236250	     -6.31508186	      9.00680703	    -16.99432823	     12.39191021	     -3.20924867	      0.64893957	      8.11101628	     -6.53502406
      0.21000000	     -3.23939253	     -8.41517564	     10.21594828	      0.01470085	      0.97399023	      0.79550559	     10.38778977	      7.32215200	     -7.88784357	    -17.95268916	      9.60576857	      2.46630354	      9.92914162	     -6.25077802	      8.98578021	    -17.02174754	     12.39756631	     -3.26359194	      0.68918701	      8.11855263	     -6.57187193
